<?xml version="1.0" encoding="utf-8"?>
<!-- Generator: Adobe Illustrator 16.0.0, SVG Export Plug-In . SVG Version: 6.00 Build 0)  -->
<!DOCTYPE svg PUBLIC "-//W3C//DTD SVG 1.1//EN" "http://www.w3.org/Graphics/SVG/1.1/DTD/svg11.dtd">
<svg version="1.1" id="Layer_1" xmlns="http://www.w3.org/2000/svg" xmlns:xlink="http://www.w3.org/1999/xlink" x="0px" y="0px"
	 width="30px" height="30px" viewBox="6.5 294.5 30 30" enable-background="new 6.5 294.5 30 30" xml:space="preserve">
<path d="M32.106,298.894c-5.858-5.858-15.355-5.858-21.213,0c-5.859,5.858-5.858,15.354,0,21.213c5.858,5.858,15.354,5.858,21.213,0
	C37.964,314.249,37.965,304.752,32.106,298.894z M12.484,318.516c-4.971-4.971-4.971-13.061,0-18.031s13.06-4.971,18.031,0
	s4.971,13.061,0,18.031S17.456,323.486,12.484,318.516z M27.274,310.626h-4.65v4.649c0,0.621-0.503,1.125-1.125,1.125
	c-0.311,0-0.591-0.126-0.795-0.33c-0.204-0.203-0.33-0.484-0.329-0.796l0-4.649h-4.651c-0.311,0-0.591-0.127-0.795-0.33
	c-0.204-0.204-0.33-0.484-0.329-0.796c-0.001-0.621,0.503-1.125,1.125-1.125h4.65v-4.649c0-0.621,0.503-1.125,1.125-1.125
	s1.125,0.503,1.124,1.126l0,4.649h4.651c0.622,0,1.125,0.503,1.124,1.126C28.4,310.122,27.896,310.626,27.274,310.626z"/>
</svg>
