<?xml version="1.0" encoding="utf-8"?>
<!-- Generator: Adobe Illustrator 16.0.0, SVG Export Plug-In . SVG Version: 6.00 Build 0)  -->
<!DOCTYPE svg PUBLIC "-//W3C//DTD SVG 1.1//EN" "http://www.w3.org/Graphics/SVG/1.1/DTD/svg11.dtd">
<svg version="1.1" id="Layer_1" xmlns="http://www.w3.org/2000/svg" xmlns:xlink="http://www.w3.org/1999/xlink" x="0px" y="0px"
	 width="30px" height="30px" viewBox="6.5 294.5 30 30" enable-background="new 6.5 294.5 30 30" xml:space="preserve">
<path d="M21.5,294.5c-8.285,0-15,6.716-15,15c0,8.285,6.715,15,15,15s15-6.715,15-15C36.5,301.216,29.785,294.5,21.5,294.5z
	 M21.5,322.25c-7.03,0-12.75-5.72-12.75-12.75s5.72-12.75,12.75-12.75s12.75,5.72,12.75,12.75S28.53,322.25,21.5,322.25z
	 M26.379,306.213l-3.289,3.288l3.288,3.288c0.439,0.438,0.439,1.151,0,1.591c-0.22,0.22-0.507,0.329-0.795,0.329
	s-0.576-0.109-0.795-0.33l-3.287-3.288l-3.289,3.288c-0.22,0.22-0.507,0.329-0.795,0.329s-0.576-0.109-0.795-0.33
	c-0.439-0.438-0.439-1.151,0-1.591l3.289-3.288l-3.288-3.288c-0.439-0.438-0.439-1.151,0-1.591s1.151-0.44,1.591,0.001l3.287,3.288
	l3.289-3.288c0.439-0.439,1.151-0.44,1.591,0.001C26.819,305.061,26.819,305.773,26.379,306.213z"/>
</svg>
