<?xml version="1.0" encoding="utf-8"?>
<!-- Generator: Adobe Illustrator 16.0.0, SVG Export Plug-In . SVG Version: 6.00 Build 0)  -->
<!DOCTYPE svg PUBLIC "-//W3C//DTD SVG 1.1//EN" "http://www.w3.org/Graphics/SVG/1.1/DTD/svg11.dtd">
<svg version="1.1" id="Layer_1" xmlns="http://www.w3.org/2000/svg" xmlns:xlink="http://www.w3.org/1999/xlink" x="0px" y="0px"
	 width="294px" height="100px" viewBox="0 0 294 100" enable-background="new 0 0 294 100" xml:space="preserve">
<g id="lockup">
	<g id="logotype">
		<g id="notes">
			<path fill="#C5C3C0" d="M267.813,58.457l-2.965,5.211c-2.281-1.598-5.377-2.559-8.078-2.559c-3.086,0-4.996,1.279-4.996,3.568
				c0,2.781,3.393,3.428,8.438,5.238c5.42,1.916,8.535,4.17,8.535,9.135c0,6.793-5.342,10.607-13.02,10.607
				c-3.742,0-8.256-0.967-11.729-3.076l2.162-5.777c2.818,1.49,6.189,2.373,9.195,2.373c4.055,0,5.98-1.496,5.98-3.705
				c0-2.529-2.939-3.289-7.678-4.859c-5.404-1.805-9.148-4.172-9.148-9.666c0-6.195,4.963-9.756,12.105-9.756
				C261.594,55.191,265.594,56.77,267.813,58.457"/>
			<polygon fill="#C5C3C0" points="222.342,61.73 222.342,69.238 235.695,69.238 235.695,75.227 222.342,75.227 222.342,83.049 
				237.838,83.049 237.838,89.09 215.363,89.09 215.363,55.764 237.838,55.764 237.838,61.73 			"/>
			<polygon fill="#C5C3C0" points="198.963,61.75 198.963,89.09 191.982,89.09 191.982,61.75 181.854,61.75 181.854,55.764 
				209.063,55.764 209.063,61.75 			"/>
			<path fill="#C5C3C0" d="M179.589,72.375c0-9.554-7.589-17.327-16.92-17.327c-9.329,0-16.92,7.773-16.92,17.327
				c0,9.556,7.591,17.327,16.92,17.327C172,89.7,179.589,81.929,179.589,72.375 M151.675,72.344c0-6.23,4.936-11.286,11.021-11.286
				c6.089,0,11.024,5.056,11.024,11.286c0,6.236-4.936,11.288-11.024,11.288C156.61,83.632,151.675,78.578,151.675,72.344"/>
			<polygon fill="#C5C3C0" points="133.762,55.764 133.788,76.357 119.201,55.764 112.533,55.764 112.533,89.09 119.215,89.09 
				119.215,68.816 133.663,89.09 140.487,89.09 140.487,55.764 			"/>
		</g>
		<g id="steam">
			<path fill="#C5C3C0" d="M293.236,17.967c0,2.864-2.145,4.649-4.607,4.649c-2.473,0-4.623-1.785-4.623-4.649
				c0-2.861,2.15-4.636,4.623-4.636C291.094,13.333,293.236,15.106,293.236,17.967 M284.779,17.967c0,2.396,1.729,3.901,3.85,3.901
				c2.115,0,3.834-1.507,3.834-3.901c0-2.402-1.719-3.885-3.834-3.885C286.514,14.083,284.779,15.583,284.779,17.967
				 M288.691,15.598c1.195,0,1.6,0.633,1.6,1.315c0,0.626-0.371,1.046-0.824,1.26l1.072,2.007h-0.877l-0.904-1.777h-0.93v1.777
				h-0.73v-4.582H288.691z M287.834,17.731h0.813c0.527,0,0.838-0.33,0.838-0.746c0-0.42-0.223-0.689-0.84-0.689h-0.813
				L287.834,17.731L287.834,17.731z"/>
			<polygon fill="#C5C3C0" points="273.064,30.749 263.941,50.221 260.006,50.221 251.033,30.922 251.033,51.191 244.352,51.191 
				244.352,17.867 251.02,17.867 262.219,41.923 273.021,17.867 279.746,17.867 279.746,51.191 273.064,51.191 			"/>
			<path fill="#C5C3C0" d="M214.398,44.723l-2.205,6.47h-7.314l12.494-33.324h7.023l12.85,33.324h-7.563l-2.254-6.472
				L214.398,44.723L214.398,44.723z M220.846,25.817l-4.551,13.343h9.195L220.846,25.817z"/>
			<polygon fill="#C5C3C0" points="183.328,23.835 183.328,31.344 196.684,31.344 196.684,37.331 183.328,37.331 183.328,45.151 
				198.822,45.151 198.822,51.191 176.35,51.191 176.35,17.867 198.822,17.867 198.822,23.835 			"/>
			<polygon fill="#C5C3C0" points="158.516,23.854 158.516,51.191 151.537,51.191 151.537,23.854 141.407,23.854 141.407,17.867 
				168.615,17.867 168.615,23.854 			"/>
			<path fill="#C5C3C0" d="M135.345,20.561l-2.964,5.211c-2.283-1.597-5.377-2.557-8.078-2.557c-3.087,0-4.997,1.278-4.997,3.567
				c0,2.78,3.393,3.428,8.436,5.237c5.421,1.916,8.537,4.17,8.537,9.135c0,6.793-5.342,10.607-13.02,10.607
				c-3.742,0-8.256-0.967-11.726-3.076l2.162-5.776c2.819,1.489,6.191,2.373,9.197,2.373c4.052,0,5.978-1.495,5.978-3.705
				c0-2.529-2.937-3.289-7.678-4.859c-5.403-1.804-9.147-4.171-9.147-9.666c0-6.196,4.963-9.756,12.104-9.756
				C129.126,17.296,133.126,18.874,135.345,20.561"/>
		</g>
	</g>
	<g id="logomark_1_">
		<g id="coil">
			
				<line fill="none" stroke="#C5C3C0" stroke-width="8" stroke-linecap="round" stroke-miterlimit="10" x1="14.609" y1="5.332" x2="14.609" y2="10.332"/>
			
				<line fill="none" stroke="#C5C3C0" stroke-width="8" stroke-linecap="round" stroke-miterlimit="10" x1="28.024" y1="5.332" x2="28.024" y2="10.332"/>
			
				<line fill="none" stroke="#C5C3C0" stroke-width="8" stroke-linecap="round" stroke-miterlimit="10" x1="41.44" y1="5.332" x2="41.44" y2="10.332"/>
			
				<line fill="none" stroke="#C5C3C0" stroke-width="8" stroke-linecap="round" stroke-miterlimit="10" x1="54.856" y1="5.332" x2="54.856" y2="10.332"/>
			
				<line fill="none" stroke="#C5C3C0" stroke-width="8" stroke-linecap="round" stroke-miterlimit="10" x1="68.271" y1="5.332" x2="68.271" y2="10.332"/>
		</g>
		<path id="notepad_1_" fill="#C5C3C0" d="M74.085,10.332H7.764c-3.866,0-7,3.134-7,7v74.336c0,3.867,3.134,7,7,7h66.321
			c3.866,0,7-3.133,7-7V17.332C81.085,13.465,77.952,10.332,74.085,10.332z M40.925,89.557c-19.33,0-35-15.668-35-35
			c0-19.33,15.67-35,35-35c19.33,0,35,15.67,35,35C75.925,73.889,60.254,89.557,40.925,89.557z"/>
		<path id="steam_1_" fill="#C5C3C0" d="M40.872,23.446c-16.312,0-29.677,12.578-30.947,28.562l16.644,6.881
			c1.411-0.965,3.114-1.525,4.948-1.525c0.163,0,0.327,0.006,0.49,0.014l7.401-10.728c0-0.053-0.001-0.104-0.001-0.152
			c0-6.457,5.254-11.711,11.712-11.711S62.83,40.04,62.83,46.497c0,6.46-5.253,11.712-11.711,11.712
			c-0.089,0-0.178-0.002-0.266-0.004l-10.557,7.531c0.006,0.137,0.01,0.277,0.01,0.416c0,4.848-3.942,8.789-8.789,8.789
			c-4.256,0-7.813-3.033-8.62-7.059l-11.901-4.922c3.685,13.035,15.659,22.592,29.876,22.592c17.151,0,31.053-13.902,31.053-31.053
			C71.925,37.35,58.021,23.446,40.872,23.446L40.872,23.446z M29.384,70.564l-3.814-1.576c0.676,1.404,1.845,2.588,3.399,3.232
			c3.357,1.398,7.226-0.193,8.625-3.553c0.678-1.625,0.682-3.42,0.011-5.047c-0.671-1.633-1.936-2.9-3.563-3.58
			c-1.612-0.67-3.341-0.646-4.861-0.072l3.94,1.631c2.477,1.031,3.646,3.875,2.614,6.352C34.705,70.428,31.859,71.598,29.384,70.564
			L29.384,70.564z M58.922,46.496c0-4.304-3.501-7.804-7.805-7.804c-4.303,0-7.803,3.5-7.803,7.804c0,4.303,3.5,7.801,7.803,7.801
			C55.42,54.297,58.922,50.799,58.922,46.496L58.922,46.496z M45.269,46.481c0-3.234,2.625-5.86,5.862-5.86
			c3.238,0,5.862,2.626,5.862,5.86c0,3.239-2.624,5.865-5.862,5.865C47.894,52.346,45.269,49.718,45.269,46.481L45.269,46.481z"/>
	</g>
</g>
</svg>
