<?xml version="1.0" encoding="utf-8"?>
<!-- Generator: Adobe Illustrator 16.0.0, SVG Export Plug-In . SVG Version: 6.00 Build 0)  -->
<!DOCTYPE svg PUBLIC "-//W3C//DTD SVG 1.1//EN" "http://www.w3.org/Graphics/SVG/1.1/DTD/svg11.dtd">
<svg version="1.1" id="Layer_1" xmlns="http://www.w3.org/2000/svg" xmlns:xlink="http://www.w3.org/1999/xlink" x="0px" y="0px"
	 width="294px" height="100px" viewBox="5.9 189.5 294 100" enable-background="new 5.9 189.5 294 100" xml:space="preserve">
<g id="lockup">
	<g id="logotype">
		<g id="notes">
			<path fill="#C5C3C0" d="M269.085,248.289l-2.965,5.21c-2.281-1.596-5.377-2.557-8.078-2.557c-3.086,0-4.996,1.278-4.996,3.567
				c0,2.781,3.393,3.429,8.438,5.238c5.42,1.917,8.535,4.171,8.535,9.136c0,6.793-5.342,10.607-13.02,10.607
				c-3.742,0-8.256-0.967-11.727-3.076l2.162-5.777c2.818,1.49,6.189,2.373,9.195,2.373c4.055,0,5.98-1.496,5.98-3.705
				c0-2.529-2.939-3.289-7.678-4.859c-5.404-1.805-9.148-4.172-9.148-9.666c0-6.196,4.963-9.756,12.105-9.756
				C262.867,245.024,266.867,246.601,269.085,248.289"/>
			<polygon fill="#C5C3C0" points="223.615,251.563 223.615,259.071 236.968,259.071 236.968,265.058 223.615,265.058 
				223.615,272.88 239.111,272.88 239.111,278.921 216.636,278.921 216.636,245.595 239.111,245.595 239.111,251.563 			"/>
			<polygon fill="#C5C3C0" points="200.236,251.582 200.236,278.921 193.255,278.921 193.255,251.582 183.126,251.582 
				183.126,245.595 210.335,245.595 210.335,251.582 			"/>
			<path fill="#C5C3C0" d="M181.679,262.207c0-9.554-7.771-17.329-17.328-17.329c-9.555,0-17.33,7.775-17.33,17.329
				c0,9.557,7.775,17.328,17.33,17.328C173.908,279.532,181.679,271.761,181.679,262.207 M153.091,262.176
				c0-6.231,5.055-11.287,11.287-11.287c6.236,0,11.291,5.056,11.291,11.287c0,6.235-5.055,11.289-11.291,11.289
				C158.146,273.465,153.091,268.41,153.091,262.176"/>
			<polygon fill="#C5C3C0" points="135.035,245.595 135.061,266.19 125.474,245.595 118.806,245.595 118.806,278.921 
				125.488,278.921 125.488,258.649 134.936,278.921 141.76,278.921 141.76,245.595 			"/>
		</g>
		<g id="steam">
			<path fill="#C5C3C0" d="M299.509,207.799c0,2.864-2.145,4.649-4.607,4.649c-2.473,0-4.623-1.785-4.623-4.649
				c0-2.862,2.15-4.636,4.623-4.636C297.367,203.164,299.509,204.937,299.509,207.799 M291.052,207.799
				c0,2.396,1.729,3.901,3.85,3.901c2.115,0,3.834-1.506,3.834-3.901c0-2.403-1.719-3.885-3.834-3.885
				C292.787,203.915,291.052,205.415,291.052,207.799 M294.964,205.43c1.195,0,1.6,0.632,1.6,1.315c0,0.626-0.371,1.046-0.824,1.26
				l1.072,2.007h-0.877l-0.904-1.778h-0.93v1.778h-0.73v-4.582H294.964z M294.107,207.562h0.813c0.527,0,0.838-0.33,0.838-0.746
				c0-0.42-0.223-0.689-0.84-0.689h-0.813L294.107,207.562L294.107,207.562z"/>
			<polygon fill="#C5C3C0" points="279.337,220.58 270.214,240.053 266.279,240.053 257.306,220.754 257.306,241.024 
				250.625,241.024 250.625,207.698 257.292,207.698 268.492,231.755 279.294,207.698 286.019,207.698 286.019,241.024 
				279.337,241.024 			"/>
			<path fill="#C5C3C0" d="M220.671,234.554l-2.205,6.471h-7.314l12.494-33.324h7.023l12.85,33.324h-7.563l-2.254-6.472
				L220.671,234.554L220.671,234.554z M227.119,215.649l-4.551,13.342h9.195L227.119,215.649z"/>
			<polygon fill="#C5C3C0" points="189.601,213.667 189.601,221.176 202.957,221.176 202.957,227.162 189.601,227.162 
				189.601,234.983 205.095,234.983 205.095,241.024 182.623,241.024 182.623,207.698 205.095,207.698 205.095,213.667 			"/>
			<polygon fill="#C5C3C0" points="164.789,213.685 164.789,241.024 157.81,241.024 157.81,213.685 147.679,213.685 
				147.679,207.698 174.888,207.698 174.888,213.685 			"/>
			<path fill="#C5C3C0" d="M141.618,210.392l-2.964,5.211c-2.283-1.596-5.377-2.556-8.078-2.556c-3.087,0-4.997,1.278-4.997,3.567
				c0,2.781,3.393,3.428,8.436,5.238c5.421,1.916,8.537,4.17,8.537,9.135c0,6.793-5.342,10.606-13.02,10.606
				c-3.742,0-8.256-0.966-11.726-3.075l2.162-5.777c2.819,1.49,6.191,2.373,9.197,2.373c4.052,0,5.978-1.495,5.978-3.705
				c0-2.529-2.937-3.289-7.678-4.859c-5.403-1.804-9.147-4.171-9.147-9.666c0-6.197,4.963-9.756,12.104-9.756
				C135.399,207.128,139.399,208.705,141.618,210.392"/>
		</g>
	</g>
	<g id="logomark_1_">
		<g id="coil">
			
				<line fill="none" stroke="#C5C3C0" stroke-width="8" stroke-linecap="round" stroke-miterlimit="10" x1="20.882" y1="195.163" x2="20.882" y2="200.163"/>
			
				<line fill="none" stroke="#C5C3C0" stroke-width="8" stroke-linecap="round" stroke-miterlimit="10" x1="34.297" y1="195.163" x2="34.297" y2="200.163"/>
			
				<line fill="none" stroke="#C5C3C0" stroke-width="8" stroke-linecap="round" stroke-miterlimit="10" x1="47.713" y1="195.163" x2="47.713" y2="200.163"/>
			
				<line fill="none" stroke="#C5C3C0" stroke-width="8" stroke-linecap="round" stroke-miterlimit="10" x1="61.129" y1="195.163" x2="61.129" y2="200.163"/>
			
				<line fill="none" stroke="#C5C3C0" stroke-width="8" stroke-linecap="round" stroke-miterlimit="10" x1="74.544" y1="195.163" x2="74.544" y2="200.163"/>
		</g>
		<path id="notepad_1_" fill="#C5C3C0" d="M80.358,200.163H14.037c-3.866,0-7,3.134-7,7V281.5c0,3.866,3.134,7,7,7h66.321
			c3.866,0,7-3.134,7-7v-74.337C87.358,203.297,84.225,200.163,80.358,200.163z M47.198,279.389c-19.33,0-35-15.669-35-35
			s15.67-35.001,35-35.001c19.33,0,35,15.67,35,35.001S66.527,279.389,47.198,279.389z"/>
		<path id="steam_1_" fill="#C5C3C0" d="M47.145,213.278c-16.312,0-29.677,12.577-30.947,28.561l16.644,6.882
			c1.411-0.965,3.114-1.526,4.948-1.526c0.163,0,0.327,0.006,0.49,0.013l7.401-10.728c0-0.052-0.001-0.104-0.001-0.152
			c0-6.457,5.254-11.711,11.712-11.711c6.458,0,11.711,5.254,11.711,11.711c0,6.46-5.253,11.713-11.711,11.713
			c-0.089,0-0.178-0.002-0.266-0.004l-10.557,7.531c0.006,0.137,0.01,0.278,0.01,0.417c0,4.846-3.942,8.788-8.789,8.788
			c-4.256,0-7.813-3.034-8.62-7.059l-11.901-4.921c3.685,13.035,15.659,22.591,29.876,22.591c17.151,0,31.053-13.902,31.053-31.052
			C78.198,227.181,64.294,213.278,47.145,213.278L47.145,213.278z M35.657,260.397l-3.814-1.576
			c0.676,1.404,1.845,2.586,3.399,3.231c3.357,1.399,7.226-0.193,8.625-3.553c0.678-1.624,0.682-3.42,0.011-5.047
			c-0.671-1.632-1.936-2.899-3.563-3.579c-1.612-0.67-3.341-0.646-4.861-0.073l3.94,1.632c2.477,1.03,3.646,3.875,2.614,6.351
			C40.978,260.259,38.132,261.43,35.657,260.397L35.657,260.397z M65.195,236.327c0-4.304-3.501-7.804-7.805-7.804
			c-4.303,0-7.803,3.5-7.803,7.804c0,4.303,3.5,7.801,7.803,7.801C61.693,244.128,65.195,240.63,65.195,236.327L65.195,236.327z
			 M51.542,236.312c0-3.234,2.625-5.86,5.862-5.86c3.238,0,5.862,2.626,5.862,5.86c0,3.24-2.624,5.866-5.862,5.866
			C54.167,242.178,51.542,239.55,51.542,236.312L51.542,236.312z"/>
	</g>
</g>
</svg>
