<?xml version="1.0" encoding="utf-8"?>
<!-- Generator: Adobe Illustrator 16.0.0, SVG Export Plug-In . SVG Version: 6.00 Build 0)  -->
<!DOCTYPE svg PUBLIC "-//W3C//DTD SVG 1.1//EN" "http://www.w3.org/Graphics/SVG/1.1/DTD/svg11.dtd">
<svg version="1.1" id="Layer_1" xmlns="http://www.w3.org/2000/svg" xmlns:xlink="http://www.w3.org/1999/xlink" x="0px" y="0px"
	 width="300px" height="300px" viewBox="0 0 300 300" enable-background="new 0 0 300 300" xml:space="preserve">
<path d="M190.264,133.251l0.045-55.996l11.273-0.032l0.024-24.784L99.295,52.694l-0.021,24.793l11.114-0.031l0.045,55.795
	c-15.242,10.813-25.865,27.671-28.311,47.11h0.053c-0.016,0.118-0.038,0.235-0.053,0.354l60.985-0.156l-0.048,78.525
	c-0.01,6.596,3.247,11.969,7.211,11.96c3.977-0.005,7.23-5.413,7.236-11.995l0.04-78.527l61.026-0.16
	C216.129,160.923,205.506,144.064,190.264,133.251z M110.395,77.457l0.153,0l-0.01,5.049L110.395,77.457z M125,75h12.5v53.08
	l-12.5,1.655V75z"/>
</svg>
