<?xml version="1.0" encoding="utf-8"?>
<!-- Generator: Adobe Illustrator 16.0.0, SVG Export Plug-In . SVG Version: 6.00 Build 0)  -->
<!DOCTYPE svg PUBLIC "-//W3C//DTD SVG 1.1//EN" "http://www.w3.org/Graphics/SVG/1.1/DTD/svg11.dtd">
<svg version="1.1" id="Layer_1" xmlns="http://www.w3.org/2000/svg" xmlns:xlink="http://www.w3.org/1999/xlink" x="0px" y="0px"
	 width="300px" height="300px" viewBox="0 0 300 300" enable-background="new 0 0 300 300" xml:space="preserve">
<path d="M125,110.983l-14.468-14.468l0.016-19.059l-11.273,0.031l0.021-24.793l102.312-0.254l-0.024,24.784l-11.273,0.032
	l-0.045,55.996c15.242,10.813,25.865,27.671,28.311,47.11l-24.131,0.065L137.5,123.483V75H125V110.983z M157.555,196.571
	l-0.047,62.478c-0.006,6.582-3.26,11.99-7.236,11.995c-3.965,0.009-7.222-5.364-7.211-11.96l0.066-76.941L157.555,196.571z
	 M141.547,180.563l-59.424,0.151c1.974-15.502,9.136-29.383,19.677-39.898L141.547,180.563z M64.017,67.678L233.08,236.742
	l-8.838,8.838L55.178,76.517L64.017,67.678z"/>
</svg>
